<?xml version="1.0" encoding="UTF-8" standalone="no"?>
<svg
   xmlns:dc="http://purl.org/dc/elements/1.1/"
   xmlns:cc="http://creativecommons.org/ns#"
   xmlns:rdf="http://www.w3.org/1999/02/22-rdf-syntax-ns#"
   xmlns:svg="http://www.w3.org/2000/svg"
   xmlns="http://www.w3.org/2000/svg"
   xmlns:sodipodi="http://sodipodi.sourceforge.net/DTD/sodipodi-0.dtd"
   xmlns:inkscape="http://www.inkscape.org/namespaces/inkscape"
   inkscape:export-ydpi="266.30072"
   inkscape:export-xdpi="266.30072"
   inkscape:export-filename="C:\Users\crypt\Documents\GIT 304\rschubkegel.github.io\pages\personal\imgs\brush-icon.png"
   width="200mm"
   height="200mm"
   viewBox="0 0 200 200"
   version="1.1"
   id="svg8"
   inkscape:version="1.0 (4035a4fb49, 2020-05-01)"
   sodipodi:docname="brush-icon.svg">
  <defs
     id="defs2" />
  <sodipodi:namedview
     id="base"
     pagecolor="#ffffff"
     bordercolor="#666666"
     borderopacity="1.0"
     inkscape:pageopacity="0.0"
     inkscape:pageshadow="2"
     inkscape:zoom="0.49497475"
     inkscape:cx="225.85683"
     inkscape:cy="626.88776"
     inkscape:document-units="mm"
     inkscape:current-layer="layer1"
     inkscape:document-rotation="0"
     showgrid="false"
     inkscape:window-width="1494"
     inkscape:window-height="1040"
     inkscape:window-x="156"
     inkscape:window-y="0"
     inkscape:window-maximized="0" />
  <metadata
     id="metadata5">
    <rdf:RDF>
      <cc:Work
         rdf:about="">
        <dc:format>image/svg+xml</dc:format>
        <dc:type
           rdf:resource="http://purl.org/dc/dcmitype/StillImage" />
        <dc:title></dc:title>
      </cc:Work>
    </rdf:RDF>
  </metadata>
  <g
     inkscape:label="Layer 1"
     inkscape:groupmode="layer"
     id="layer1">
    <g
       transform="matrix(2.5137544,0,0,2.5137544,-158.88652,-265.80933)"
       id="g1014">
      <path
         id="path933"
         style="color:#000000;font-style:normal;font-variant:normal;font-weight:normal;font-stretch:normal;font-size:medium;line-height:normal;font-family:sans-serif;font-variant-ligatures:normal;font-variant-position:normal;font-variant-caps:normal;font-variant-numeric:normal;font-variant-alternates:normal;font-variant-east-asian:normal;font-feature-settings:normal;font-variation-settings:normal;text-indent:0;text-align:start;text-decoration:none;text-decoration-line:none;text-decoration-style:solid;text-decoration-color:#000000;letter-spacing:normal;word-spacing:normal;text-transform:none;writing-mode:lr-tb;direction:ltr;text-orientation:mixed;dominant-baseline:auto;baseline-shift:baseline;text-anchor:start;white-space:normal;shape-padding:0;shape-margin:0;inline-size:0;clip-rule:nonzero;display:inline;overflow:visible;visibility:visible;opacity:1;isolation:auto;mix-blend-mode:normal;color-interpolation:sRGB;color-interpolation-filters:linearRGB;solid-color:#000000;solid-opacity:1;vector-effect:none;fill:#000000;fill-opacity:1;fill-rule:nonzero;stroke:none;stroke-width:30.2362;stroke-linecap:butt;stroke-linejoin:miter;stroke-miterlimit:4;stroke-dasharray:none;stroke-dashoffset:0;stroke-opacity:1;paint-order:markers fill stroke;color-rendering:auto;image-rendering:auto;shape-rendering:auto;text-rendering:auto;enable-background:accumulate;stop-color:#000000;stop-opacity:1"
         transform="scale(0.26458333)"
         d="m 389.91797,410.97852 c -14.97758,0 -29.42795,2.31402 -43.01758,6.5957 0.76375,0.44196 1.53044,0.8816 2.28516,1.33398 10.65542,6.38692 20.65997,13.8458 28.36523,22.97657 4.06173,-0.43724 8.18584,-0.66993 12.36719,-0.66993 62.78619,0 113.36523,50.5712 113.36523,113.35743 0,18.31514 -4.3095,35.58809 -11.96484,50.87304 7.18491,8.98959 13.89816,17.80448 19.76953,26.06641 14.19391,-22.26038 22.43164,-48.66254 22.43164,-76.93945 0,-79.1271 -64.47451,-143.59375 -143.60156,-143.59375 z m -132.74414,88.88476 c -6.98814,16.87382 -10.85547,35.35087 -10.85547,54.70899 0,79.12708 64.47251,143.5996 143.59961,143.59961 28.88304,0 55.80798,-8.59771 78.36328,-23.35547 -7.99718,-5.96794 -16.44586,-12.80426 -25.03125,-20.11524 -15.88102,8.44707 -34.02784,13.23438 -53.33203,13.23438 -62.78623,0 -113.36328,-50.57706 -113.36328,-113.36328 0,-8.14635 0.85944,-16.08506 2.47851,-23.73633 -7.14034,-7.28155 -13.20271,-15.95769 -18.55664,-25.08008 -1.13596,-1.93553 -2.23171,-3.90514 -3.30273,-5.89258 z" />
      <g
         id="g1008">
        <path
           sodipodi:nodetypes="ssss"
           id="path845-4"
           d="m 137.05043,180.15352 c -4.14672,4.41401 -38.428169,-28.67224 -40.720371,-34.12077 -1.874163,-4.45485 2.134378,-8.76929 6.615321,-7.44468 6.39592,1.89071 37.43918,38.01642 34.10505,41.56545 z"
           style="font-variation-settings:normal;opacity:1;vector-effect:none;fill:#000000;fill-opacity:1;stroke:none;stroke-width:8;stroke-linecap:butt;stroke-linejoin:miter;stroke-miterlimit:4;stroke-dasharray:none;stroke-dashoffset:0;stroke-opacity:1;paint-order:stroke fill markers;stop-color:#000000;stop-opacity:1" />
        <path
           sodipodi:nodetypes="czc"
           id="path847-3"
           d="m 64.880856,106.32155 c -1.069077,8.28535 11.089863,49.52612 29.83127,30.30494 18.741414,-19.22118 -20.476835,-30.30494 -29.83127,-30.30494 z"
           style="font-variation-settings:normal;opacity:1;vector-effect:none;fill:#000000;fill-opacity:1;stroke:none;stroke-width:8;stroke-linecap:butt;stroke-linejoin:miter;stroke-miterlimit:4;stroke-dasharray:none;stroke-dashoffset:0;stroke-opacity:1;paint-order:stroke fill markers;stop-color:#000000;stop-opacity:1" />
      </g>
    </g>
  </g>
</svg>
