<svg id="visual" viewBox="0 0 900 600" width="900" height="600" xmlns="http://www.w3.org/2000/svg" xmlns:xlink="http://www.w3.org/1999/xlink" version="1.1">
  <path d="M0 447L16.7 457.3C33.3 467.7 66.7 488.3 100 497C133.3 505.7 166.7 502.3 200 488.3C233.3 474.3 266.7 449.7 300 444.8C333.3 440 366.7 455 400 453.5C433.3 452 466.7 434 500 430.5C533.3 427 566.7 438 600 452.7C633.3 467.3 666.7 485.7 700 479.7C733.3 473.7 766.7 443.3 800 434.2C833.3 425 866.7 437 883.3 443L900 449L900 601L883.3 601C866.7 601 833.3 601 800 601C766.7 601 733.3 601 700 601C666.7 601 633.3 601 600 601C566.7 601 533.3 601 500 601C466.7 601 433.3 601 400 601C366.7 601 333.3 601 300 601C266.7 601 233.3 601 200 601C166.7 601 133.3 601 100 601C66.7 601 33.3 601 16.7 601L0 601Z" fill="#506a4e"></path>
  <path d="M0 532L16.7 525.8C33.3 519.7 66.7 507.3 100 508.2C133.3 509 166.7 523 200 529C233.3 535 266.7 533 300 530.3C333.3 527.7 366.7 524.3 400 514.5C433.3 504.7 466.7 488.3 500 478.5C533.3 468.7 566.7 465.3 600 465.8C633.3 466.3 666.7 470.7 700 477.2C733.3 483.7 766.7 492.3 800 501.2C833.3 510 866.7 519 883.3 523.5L900 528L900 601L883.3 601C866.7 601 833.3 601 800 601C766.7 601 733.3 601 700 601C666.7 601 633.3 601 600 601C566.7 601 533.3 601 500 601C466.7 601 433.3 601 400 601C366.7 601 333.3 601 300 601C266.7 601 233.3 601 200 601C166.7 601 133.3 601 100 601C66.7 601 33.3 601 16.7 601L0 601Z" fill="#70aa6e"></path>
  <path d="M0 553L16.7 549.3C33.3 545.7 66.7 538.3 100 533.5C133.3 528.7 166.7 526.3 200 531.8C233.3 537.3 266.7 550.7 300 549.3C333.3 548 366.7 532 400 530.3C433.3 528.7 466.7 541.3 500 547C533.3 552.7 566.7 551.3 600 545.2C633.3 539 666.7 528 700 522.7C733.3 517.3 766.7 517.7 800 526C833.3 534.3 866.7 550.7 883.3 558.8L900 567L900 601L883.3 601C866.7 601 833.3 601 800 601C766.7 601 733.3 601 700 601C666.7 601 633.3 601 600 601C566.7 601 533.3 601 500 601C466.7 601 433.3 601 400 601C366.7 601 333.3 601 300 601C266.7 601 233.3 601 200 601C166.7 601 133.3 601 100 601C66.7 601 33.3 601 16.7 601L0 601Z" fill="#90ee90"></path>
</svg>