<svg id="visual" viewBox="0 0 900 600" width="900" height="600" xmlns="http://www.w3.org/2000/svg" xmlns:xlink="http://www.w3.org/1999/xlink" version="1.1">
  <path d="M0 465L16.7 459.7C33.3 454.3 66.7 443.7 100 437.7C133.3 431.7 166.7 430.3 200 432.3C233.3 434.3 266.7 439.7 300 451.3C333.3 463 366.7 481 400 489.3C433.3 497.7 466.7 496.3 500 486.5C533.3 476.7 566.7 458.3 600 450.3C633.3 442.3 666.7 444.7 700 441.7C733.3 438.7 766.7 430.3 800 430C833.3 429.7 866.7 437.3 883.3 441.2L900 445L900 601L883.3 601C866.7 601 833.3 601 800 601C766.7 601 733.3 601 700 601C666.7 601 633.3 601 600 601C566.7 601 533.3 601 500 601C466.7 601 433.3 601 400 601C366.7 601 333.3 601 300 601C266.7 601 233.3 601 200 601C166.7 601 133.3 601 100 601C66.7 601 33.3 601 16.7 601L0 601Z" fill="#b8c08f"></path>
  <path d="M0 475L16.7 476.3C33.3 477.7 66.7 480.3 100 487.3C133.3 494.3 166.7 505.7 200 509C233.3 512.3 266.7 507.7 300 511.2C333.3 514.7 366.7 526.3 400 521.7C433.3 517 466.7 496 500 495.2C533.3 494.3 566.7 513.7 600 522.7C633.3 531.7 666.7 530.3 700 525.2C733.3 520 766.7 511 800 500.2C833.3 489.3 866.7 476.7 883.3 470.3L900 464L900 601L883.3 601C866.7 601 833.3 601 800 601C766.7 601 733.3 601 700 601C666.7 601 633.3 601 600 601C566.7 601 533.3 601 500 601C466.7 601 433.3 601 400 601C366.7 601 333.3 601 300 601C266.7 601 233.3 601 200 601C166.7 601 133.3 601 100 601C66.7 601 33.3 601 16.7 601L0 601Z" fill="#7ea656"></path>
  <path d="M0 566L16.7 557.3C33.3 548.7 66.7 531.3 100 525.8C133.3 520.3 166.7 526.7 200 528.8C233.3 531 266.7 529 300 531.8C333.3 534.7 366.7 542.3 400 543.5C433.3 544.7 466.7 539.3 500 540.2C533.3 541 566.7 548 600 548.5C633.3 549 666.7 543 700 537.3C733.3 531.7 766.7 526.3 800 527.3C833.3 528.3 866.7 535.7 883.3 539.3L900 543L900 601L883.3 601C866.7 601 833.3 601 800 601C766.7 601 733.3 601 700 601C666.7 601 633.3 601 600 601C566.7 601 533.3 601 500 601C466.7 601 433.3 601 400 601C366.7 601 333.3 601 300 601C266.7 601 233.3 601 200 601C166.7 601 133.3 601 100 601C66.7 601 33.3 601 16.7 601L0 601Z" fill="#288d28"></path>
</svg>